<svg width="20" height="20" viewBox="0 0 20 20" fill="none" xmlns="http://www.w3.org/2000/svg">
<path fill-rule="evenodd" clip-rule="evenodd" d="M20 2V18C20 18.6667 19.6 20 18 20H2C1.33333 20 0 19.6 0 18V2C0 1.33333 0.4 0 2 0H18C18.6667 0 20 0.4 20 2ZM18 4V16C18 16.6667 17.6 18 16 18H4C3.33333 18 2 17.6 2 16V4C2 3.33333 2.4 2 4 2H16C16.6667 2 18 2.4 18 4Z" fill="#E0F0EA"/>
<path d="M5 3L3 5C10 10 10 10 3 15L5 17C10 10 10 10 15 17L17 15C10 10 10 10 17 5L15 3C10 10 10 10 5 3Z" fill="#E0F0EA"/>
</svg>
