<svg width="18" height="10" viewBox="0 0 18 10" fill="none" xmlns="http://www.w3.org/2000/svg">
<path d="M16 2C16 2.17265 15.9234 2.34019 15.7795 2.5C15.6113 2.68663 15.3513 2.86272 15.014 3.02409C14.617 3.21399 14.1129 3.38351 13.5257 3.52584C12.3053 3.8216 10.7256 4 9 4C7.27441 4 5.69466 3.8216 4.47433 3.52584C3.88705 3.38351 3.38302 3.21399 2.98604 3.02409C2.64869 2.86272 2.38865 2.68663 2.22053 2.5C2.07657 2.34019 2 2.17265 2 2C2 0.89543 5.13401 0 9 0C12.866 0 16 0.89543 16 2Z" fill="#E0F0EA"/>
<path d="M9 8C12.866 8 16 7.10457 16 6V4.5465V3.48563C15.9522 3.45938 15.9037 3.4334 15.8544 3.40771C15.6946 3.62818 15.4078 3.83538 15.0167 4.02276C14.643 4.20183 14.1742 4.36281 13.6302 4.5C12.3962 4.81118 10.7753 5 9 5C7.22472 5 5.60379 4.81118 4.36981 4.5C3.82578 4.36281 3.35695 4.20183 2.98327 4.02276C2.59223 3.83538 2.30538 3.62819 2.14556 3.40771C2.09632 3.4334 2.04779 3.45938 2 3.48563V4.5465V6C2 7.10457 5.13401 8 9 8Z" fill="#E0F0EA"/>
<path fill-rule="evenodd" clip-rule="evenodd" d="M17 4.16569C17.6391 4.71513 18 5.33883 18 6C18 6.66117 17.6391 7.28487 17 7.83431C15.5038 9.12069 12.4829 10 9 10C5.51707 10 2.49623 9.12069 1 7.83431C0.360931 7.28487 0 6.66117 0 6C0 5.33883 0.360931 4.71513 1 4.16569V6C1 7.65685 4.58172 9 9 9C13.4183 9 17 7.65685 17 6V4.16569ZM16 3.48563V4.5465V6C16 7.10457 12.866 8 9 8C5.13401 8 2 7.10457 2 6V4.5465V3.48563C2.04779 3.45938 2.09632 3.4334 2.14556 3.40771C2.30538 3.62819 2.59223 3.83538 2.98327 4.02276C3.35695 4.20183 3.82578 4.36281 4.36981 4.5C5.60379 4.81118 7.22472 5 9 5C10.7753 5 12.3962 4.81118 13.6302 4.5C14.1742 4.36281 14.643 4.20183 15.0167 4.02276C15.4078 3.83538 15.6946 3.62818 15.8544 3.40771C15.9037 3.4334 15.9522 3.45938 16 3.48563ZM9 0C5.13401 0 2 0.89543 2 2C2 2.17265 2.07657 2.34019 2.22053 2.5C2.38865 2.68663 2.64869 2.86272 2.98604 3.02409C3.38302 3.21399 3.88705 3.38351 4.47433 3.52584C5.69466 3.8216 7.27441 4 9 4C10.7256 4 12.3053 3.8216 13.5257 3.52584C14.1129 3.38351 14.617 3.21399 15.014 3.02409C15.3513 2.86272 15.6113 2.68663 15.7795 2.5C15.9234 2.34019 16 2.17265 16 2C16 0.89543 12.866 0 9 0Z" fill="#E0F0EA"/>
</svg>
