<svg width="16" height="16" viewBox="0 0 16 16" fill="none" xmlns="http://www.w3.org/2000/svg">
<path fill-rule="evenodd" clip-rule="evenodd" d="M0 8C0 5.33333 1.6 0 8 0C8.82405 0 9.90273 0.152786 11 0.552786L10.5 1.4393C9.58332 1.12233 8.68972 1 8 1C2.4 1 1 5.66667 1 8C1 13.6 5.66667 15 8 15C13.6 15 15 10.3333 15 8C15 6.75062 14.7677 5.71029 14.3809 4.84792L15.2579 4.32183C15.7207 5.32206 16 6.53533 16 8C16 10.6667 14.4 16 8 16C5.33333 16 0 14.4 0 8Z" fill="#D9D9D9"/>
<path d="M16 3L13 0C12.6631 0.336931 12.3474 0.676229 12.0519 1.0161C11.821 1.2816 11.6024 1.54744 11.3954 1.81278C8.72244 5.24027 8 8.58339 8 10C8 6 4.66667 5 3 5L2 8C6 8 7.66667 12 8 14C8 9.57765 11.3261 6.11154 14.0383 4.19266C14.3302 3.98607 14.6151 3.79743 14.888 3.62745C15.29 3.37697 15.6659 3.16704 16 3Z" fill="#D9D9D9"/>
</svg>
