<svg width="17" height="17" viewBox="0 0 17 17" fill="none" xmlns="http://www.w3.org/2000/svg">
<path fill-rule="evenodd" clip-rule="evenodd" d="M3 11V16C3 16.8 3.66667 17 4 17H9C9 16.2 8.33333 16 8 16C7.2 16 7 15.3333 7 15C7 14.2 9 14 10 14C11 14 13 14.2 13 15C13 15.3333 12.8 16 12 16C11.6667 16 11 16.2 11 17H16C16.8 17 17 16.3333 17 16V11C16.2 11 16 11.6667 16 12C16 12.8 15.3333 13 15 13C14.2 13 14 11 14 10C14 9 14.2 7 15 7C15.3333 7 16 7.2 16 8C16 8.33333 16.2 9 17 9V4C17 3.2 16.3333 3 16 3H11C11 2.2 11.6667 2 12 2C12.8 2 13 1.33333 13 1C13 0.2 11 0 10 0C9 0 7 0.2 7 1C7 1.33333 7.2 2 8 2C8.33333 2 9 2.2 9 3H4C3.66667 3 3 3.2 3 4V9C2.2 9 2 8.33333 2 8C2 7.2 1.33333 7 1 7C0.2 7 0 9 0 10C0 11 0.2 13 1 13C1.33333 13 2 12.8 2 12C2 11.6667 2.2 11 3 11ZM4 4V7C4 8 4.5 9 6 9C7.6 9 8 8 8 7V4H7V6C7 7.5 6.8 8 6 8C5.2 8 5 7.5 5 6V4H4ZM9 5V4H12V5H11V8H12V9H9V8H10V5H9Z" fill="#E0F0EA"/>
</svg>
