<svg width="17" height="17" viewBox="0 0 17 17" fill="none" xmlns="http://www.w3.org/2000/svg">
<path d="M3 16V11C2.2 11 2 11.6667 2 12C2 12.8 1.33333 13 1 13C0.2 13 0 11 0 10C0 9 0.2 7 1 7C1.33333 7 2 7.2 2 8C2 8.33333 2.2 9 3 9V4C3 3.2 3.66667 3 4 3H9C9 2.2 8.33333 2 8 2C7.2 2 7 1.33333 7 1C7 0.2 9 0 10 0C11 0 13 0.2 13 1C13 1.33333 12.8 2 12 2C11.6667 2 11 2.2 11 3H16C16.3333 3 17 3.2 17 4V9C16.2 9 16 8.33333 16 8C16 7.2 15.3333 7 15 7C14.2 7 14 9 14 10C14 11 14.2 13 15 13C15.3333 13 16 12.8 16 12C16 11.6667 16.2 11 17 11V16C17 16.3333 16.8 17 16 17H11C11 16.2 11.6667 16 12 16C12.8 16 13 15.3333 13 15C13 14.2 11 14 10 14C9 14 7 14.2 7 15C7 15.3333 7.2 16 8 16C8.33333 16 9 16.2 9 17H4C3.66667 17 3 16.8 3 16Z" fill="#E0F0EA"/>
</svg>
