<svg width="18" height="11" viewBox="0 0 18 11" fill="none" xmlns="http://www.w3.org/2000/svg">
<path d="M5.5 2.5L4.5 5.5H6.5L5.5 2.5Z" fill="#D9D9D9"/>
<path fill-rule="evenodd" clip-rule="evenodd" d="M17 11H1C0.2 11 0 10.3333 0 10V1C0 0.2 0.666667 0 1 0H17C17.8 0 18 0.666667 18 1V10C18 10.8 17.3333 11 17 11ZM1.5 10L4.5 1H6.5L9.5 10H8L7.0625 7H3.9375L3 10H1.5ZM12 1H10.5V7V10H12V9.62906C12.5315 9.90254 13.097 10 13.5 10C15.9 10 16.5 8 16.5 7C16.5 4.6 14.5 4 13.5 4C12.8904 4 12.397 4.12902 12 4.33789V1Z" fill="#D9D9D9"/>
<path d="M15 7C15 5.8 14 5.5 13.5 5.5C12.3 5.5 12 6.5 12 7C12 8.2 13 8.5 13.5 8.5C14.7 8.5 15 7.5 15 7Z" fill="#D9D9D9"/>
</svg>
