<svg width="18" height="8" viewBox="0 0 18 8" fill="none" xmlns="http://www.w3.org/2000/svg">
<path d="M0.5 7C0.1 7 0 7.33333 0 7.5C0 7.9 0.333333 8 0.5 8H17.5C17.9 8 18 7.66667 18 7.5C18 7.1 17.6667 7 17.5 7H0.5Z" fill="#D9D9D9"/>
<path d="M11.5 5C11.3333 5 11 5.1 11 5.5C11 5.65783 11.0897 5.96512 11.4389 5.99726C11.4584 5.99906 11.4788 6 11.5 6C11.6667 6 12 5.9 12 5.5C12 5.33333 11.9 5 11.5 5Z" fill="#D9D9D9"/>
<path d="M12 5.5C12 5.9 11.6667 6 11.5 6C11.4788 6 11.4584 5.99906 11.4389 5.99726C11.3716 6.26077 11.2396 6.5 11 6.5C11.8 6.5 12 5.83333 12 5.5Z" fill="#D9D9D9"/>
<path d="M12 1.5C12 1.9 11.6667 2 11.5 2C11.1 2 11 1.66667 11 1.5C11 1.1 11.3333 1 11.5 1C11.9 1 12 1.33333 12 1.5Z" fill="#D9D9D9"/>
<path fill-rule="evenodd" clip-rule="evenodd" d="M8.5 6C10.1 6 10.5 4.66667 10.5 4C10.5 2.4 9.16667 2 8.5 2C8.09363 2 7.76466 2.08601 7.5 2.22526V0.5C7.5 0.333333 7.4 0 7 0C6.83918 0 6.52318 0.0931063 6.50121 0.458999L6.5 5.5C6.5 5.9 6.83333 6 7 6H7.5V5.75271C7.85433 5.93503 8.23131 6 8.5 6ZM8.5 3C8.83333 3 9.5 3.2 9.5 4C9.5 4.33333 9.3 5 8.5 5C8.16667 5 7.5 4.8 7.5 4C7.5 3.66667 7.7 3 8.5 3Z" fill="#D9D9D9"/>
<path fill-rule="evenodd" clip-rule="evenodd" d="M6 6H5L4.4 4H2.6L2 6H1L2.9 0.5C2.97637 0.118156 3.30182 0.0096962 3.47619 0.000636795C3.6508 0.00042453 4.02 0.1 4.1 0.5L6 6ZM3.5 1L4.25 3.5H2.75L3.5 1Z" fill="#D9D9D9"/>
</svg>
