<svg width="16" height="12" viewBox="0 0 16 12" fill="none" xmlns="http://www.w3.org/2000/svg">
<path d="M0 1C0 0.2 0.666667 0 1 0H3C3.4 0 3.5 0.333333 3.5 0.5H1C0.833333 0.5 0.5 0.6 0.5 1V3.5C0.333333 3.5 0 3.4 0 3V1Z" fill="#D9D9D9"/>
<path d="M16 1C16 0.2 15.3333 0 15 0H13C12.6 0 12.5 0.333333 12.5 0.5H15C15.4 0.5 15.5 0.833333 15.5 1V3.5C15.6667 3.5 16 3.4 16 3V1Z" fill="#D9D9D9"/>
<path d="M15 12C15.8 12 16 11.3333 16 11V9C16 8.6 15.6667 8.5 15.5 8.5V11C15.5 11.4 15.1667 11.5 15 11.5H12.5C12.5 11.6667 12.6 12 13 12H15Z" fill="#D9D9D9"/>
<path d="M0 11C0 11.8 0.666667 12 1 12H3C3.4 12 3.5 11.6667 3.5 11.5H1C0.6 11.5 0.5 11.1667 0.5 11V8.5C0.333333 8.5 0 8.6 0 9V11Z" fill="#D9D9D9"/>
</svg>
