<svg width="16" height="14" viewBox="0 0 16 14" fill="none" xmlns="http://www.w3.org/2000/svg">
<path fill-rule="evenodd" clip-rule="evenodd" d="M16 1V13C16 13.3333 15.8 14 15 14H1C0.666667 14 0 13.8 0 13V1C0 0.2 0.666667 0 1 0H15C15.3333 0 16 0.2 16 1ZM15 13.5C15.1667 13.5 15.5 13.4 15.5 13V3.5C15.5 3.33333 15.4 3 15 3H1C0.833333 3 0.5 3.1 0.5 3.5V13C0.5 13.1667 0.6 13.5 1 13.5H15ZM14 2.5C14.3333 2.5 15 2.3 15 1.5C15 1.16667 14.8 0.5 14 0.5C13.6667 0.5 13 0.7 13 1.5C13 1.83333 13.2 2.5 14 2.5ZM11 0.5C11.3333 0.5 12 0.7 12 1.5C12 1.83333 11.8 2.5 11 2.5C10.6667 2.5 10 2.3 10 1.5C10 1.16667 10.2 0.5 11 0.5ZM8 0.5C8.33333 0.5 9 0.7 9 1.5C9 1.83333 8.8 2.5 8 2.5C7.66667 2.5 7 2.3 7 1.5C7 1.16667 7.2 0.5 8 0.5Z" fill="#E0F0EA"/>
</svg>
