<svg width="20" height="11" viewBox="0 0 20 11" fill="none" xmlns="http://www.w3.org/2000/svg">
<path fill-rule="evenodd" clip-rule="evenodd" d="M4.5 0L1.5 9H3L3.9375 6H7.0625L8 9H9.5L6.5 0H4.5ZM5.5 1.5L4.5 4.5H6.5L5.5 1.5Z" fill="#E0F0EA"/>
<path fill-rule="evenodd" clip-rule="evenodd" d="M10.5 0H12V3.33789C12.397 3.12902 12.8904 3 13.5 3C14.5 3 16.5 3.6 16.5 6C16.5 7 15.9 9 13.5 9C13.097 9 12.5315 8.90254 12 8.62906V9H10.5V6V0ZM13.5 4.5C14 4.5 15 4.8 15 6C15 6.5 14.7 7.5 13.5 7.5C13 7.5 12 7.2 12 6C12 5.5 12.3 4.5 13.5 4.5Z" fill="#E0F0EA"/>
<path d="M19 2V9C19 9.4 18.6667 9.5 18.5 9.5C18.1 9.5 18 9.16667 18 9V2C18 1.6 18.3333 1.5 18.5 1.5C18.9 1.5 19 1.83333 19 2Z" fill="#E0F0EA"/>
<path d="M1 10H19C19.4 10 19.5 10.3333 19.5 10.5C19.5 10.9 19.1667 11 19 11H1C0.6 11 0.5 10.6667 0.5 10.5C0.5 10.1 0.833333 10 1 10Z" fill="#E0F0EA"/>
</svg>
