<svg width="18" height="18" viewBox="0 0 18 18" fill="none" xmlns="http://www.w3.org/2000/svg">
<path d="M17 18H3C3 16.4 5 16 6 16C6.8 16 7 15.3333 7 15C7 12.6 4.33333 12 3 12C0.6 12 0 9.33333 0 8H6C6.8 8 7 7.33333 7 7H18V9C16.3333 9 13 9.8 13 13V15C13 15.3333 13.2 16 14 16C15 16 17 16.4 17 18Z" fill="#E0F0EA"/>
<path d="M3 2.5C3 3.32843 2.32843 4 1.5 4H0.499817C0.95592 4.60722 1.68209 5 2.5 5C3.52516 5 4.4062 4.38295 4.79198 3.5H13.208C13.2366 3.56539 13.2679 3.62932 13.3017 3.69165C13.7251 4.47096 14.5508 5 15.5 5C16.3179 5 17.0441 4.60722 17.5002 4H16.5C15.6716 4 15 3.32843 15 2.5C15 1.67157 15.6716 1 16.5 1H17.5002C17.0441 0.392777 16.3179 0 15.5 0C14.4748 0 13.3858 0.617048 13 1.5H4.79198C4.4062 0.617048 3.52516 0 2.5 0C1.68209 0 0.95592 0.392777 0.499817 1H1.5C2.32843 1 3 1.67157 3 2.5Z" fill="#E0F0EA"/>
</svg>
