<svg width="18" height="18" viewBox="0 0 18 18" fill="none" xmlns="http://www.w3.org/2000/svg">
<path fill-rule="evenodd" clip-rule="evenodd" d="M9 17C13.5 17 17 13.5 17 9C17 4.5 13.5 1 9 1C4.5 1 1 4.5 1 9C1 13.5 4.5 17 9 17ZM7 9C7 8.33333 7.4 7 9 7C9.66667 7 11 7.4 11 9C11 9.66667 10.6 11 9 11C8.33333 11 7 10.6 7 9Z" fill="#D9D9D9"/>
<path d="M0 8C0 7.44772 0.447715 7 1 7H3C3.55228 7 4 7.44772 4 8V10C4 10.5523 3.55228 11 3 11H1C0.447715 11 0 10.5523 0 10V8Z" fill="#D9D9D9"/>
<path d="M11.7071 4.53554C11.3166 4.14501 11.3166 3.51185 11.7071 3.12132L13.1213 1.70711C13.5118 1.31659 14.145 1.31659 14.5355 1.70711L15.9497 3.12132C16.3403 3.51185 16.3403 4.14501 15.9497 4.53554L14.5355 5.94975C14.145 6.34027 13.5118 6.34027 13.1213 5.94975L11.7071 4.53554Z" fill="#D9D9D9"/>
<path d="M1.70711 4.53554C1.31659 4.14502 1.31659 3.51185 1.70711 3.12133L3.12132 1.70711C3.51185 1.31659 4.14501 1.31659 4.53554 1.70711L5.94975 3.12133C6.34027 3.51185 6.34027 4.14502 5.94975 4.53554L4.53554 5.94975C4.14501 6.34028 3.51185 6.34028 3.12132 5.94975L1.70711 4.53554Z" fill="#D9D9D9"/>
<path d="M1.70711 14.7071C1.31659 14.3166 1.31659 13.6834 1.70711 13.2929L3.12132 11.8787C3.51185 11.4882 4.14501 11.4882 4.53554 11.8787L5.94975 13.2929C6.34027 13.6834 6.34027 14.3166 5.94975 14.7071L4.53554 16.1213C4.14501 16.5118 3.51185 16.5118 3.12132 16.1213L1.70711 14.7071Z" fill="#D9D9D9"/>
<path d="M11.7071 14.7071C11.3166 14.3166 11.3166 13.6834 11.7071 13.2929L13.1213 11.8787C13.5118 11.4882 14.145 11.4882 14.5355 11.8787L15.9498 13.2929C16.3403 13.6834 16.3403 14.3166 15.9497 14.7071L14.5355 16.1213C14.145 16.5118 13.5118 16.5118 13.1213 16.1213L11.7071 14.7071Z" fill="#D9D9D9"/>
<path d="M14 8C14 7.44772 14.4477 7 15 7H17C17.5523 7 18 7.44772 18 8V10C18 10.5523 17.5523 11 17 11H15C14.4477 11 14 10.5523 14 10V8Z" fill="#D9D9D9"/>
<path d="M7 1C7 0.447715 7.44772 0 8 0H10C10.5523 0 11 0.447715 11 1V3C11 3.55228 10.5523 4 10 4H8C7.44772 4 7 3.55228 7 3V1Z" fill="#D9D9D9"/>
<path d="M7 15C7 14.4477 7.44772 14 8 14H10C10.5523 14 11 14.4477 11 15V17C11 17.5523 10.5523 18 10 18H8C7.44772 18 7 17.5523 7 17V15Z" fill="#D9D9D9"/>
</svg>
