<svg width="16" height="18" viewBox="0 0 16 18" fill="none" xmlns="http://www.w3.org/2000/svg">
<path fill-rule="evenodd" clip-rule="evenodd" d="M16 4V14L8 18L0 14V4L8 0L16 4ZM2 9C2 7 3.2 3 8 3C9.43896 3 11.9132 3.62118 13.1882 5.7574L11.4588 6.83827C10.6088 5.41412 8.95931 5 8 5C4.8 5 4 7.66667 4 9C4 12.2 6.66667 13 8 13C9.82329 13 10.8674 12.1343 11.4284 11.1427L13.1426 12.2141C12.3011 13.7014 10.7349 15 8 15C6 15 2 13.8 2 9ZM13.5 11V10H12.5V11H12V10H11V9.5H12V8.5H11V8H12V7H12.5V8H13.5V7H14V8H15V8.5H14V9.5H15V10H14V11H13.5Z" fill="#E0F0EA"/>
<path d="M12.5 8.5V9.5H13.5V8.5H12.5Z" fill="#E0F0EA"/>
</svg>
