<svg width="16" height="13" viewBox="0 0 16 13" fill="none" xmlns="http://www.w3.org/2000/svg">
<path d="M0 3C0 3.33333 0.2 4 1 4H1.5L2.5 0H1C0.666667 0 0 0.2 0 1V3Z" fill="#E0F0EA"/>
<path d="M4.5 0L3.5 4H5.5L6.5 0H4.5Z" fill="#E0F0EA"/>
<path d="M8.5 0L7.5 4H9.5L10.5 0H8.5Z" fill="#E0F0EA"/>
<path d="M13 4.5C13 5.7 14 6 14.5 6C15.7 6 16 5 16 4.5C16 3.3 15 3 14.5 3C13.3 3 13 4 13 4.5Z" fill="#E0F0EA"/>
<path d="M0 12V6C0 5.2 0.666667 5 1 5H12.5C12.5 6.2 13.5 6.5 14 6.5V12C14 12.8 13.3333 13 13 13H1C0.2 13 0 12.3333 0 12Z" fill="#E0F0EA"/>
<path d="M13 0C13.8 0 14 0.666667 14 1V2.5C12.8 2.5 12.5 3.5 12.5 4H11.5L12.5 0H13Z" fill="#E0F0EA"/>
</svg>
