<svg width="15" height="18" viewBox="0 0 15 18" fill="none" xmlns="http://www.w3.org/2000/svg">
<path fill-rule="evenodd" clip-rule="evenodd" d="M5 18H13C14.6 18 15 16.6667 15 16C15 14.4 13.6667 14 13 14H6C5.66667 14 5 14.2 5 15C5.33333 15 6 15.2 6 16C6 16 5.8 17 5 17C4.66667 17 4 16.8 4 16V14C4 13.2 4.66667 13 5 13H6H12C12.8 13 13 12.3333 13 12V2C13 1.33333 12.6 0 11 0H3C2.33333 0 1 0.4 1 2C1 3.6 1.66667 4 2 4V2C2 1.2 2.66667 1 3 1V16C3 16.6667 3.4 18 5 18ZM7 1H4V2H7V1ZM4 4V3H12V4H4ZM5 5H4V6H5V5ZM9 7H6V8H9V7ZM12 9H6V10H12V9ZM5 12V11H4V12H5Z" fill="#D9D9D9"/>
</svg>
