<svg width="13" height="18" viewBox="0 0 13 18" fill="none" xmlns="http://www.w3.org/2000/svg">
<path fill-rule="evenodd" clip-rule="evenodd" d="M1 -1.50502e-06C3 -0.0209072 6.2 -2.98955e-07 7 -2.98955e-07C7.8 -2.98955e-07 8 0.666659 8 0.99999V4.06271C8 4.8627 8.66667 5.0209 9 5H12C12.3333 5 13 5.21254 13 6.0627V17C13 17.3333 12.8 18 12 18H1C0.666667 18 0 17.8 0 17V0.999998C0 0.666665 0.2 -1.50502e-06 1 -1.50502e-06ZM7 2H1V3H7V2ZM1 5V4.00001H7V5H1ZM12 6H1V7H12V6ZM1 9V8H12V9H1ZM1 11V10H12V11H1ZM1 13V12H12V13H1ZM1 15V14H7V15H1Z" fill="#D9D9D9"/>
<path d="M12 4H10C9.2 4 9 3.33333 9 3V0.999998C9 0.199999 9.66667 -9.96515e-08 10 0L13 3C13 3.8 12.3333 4 12 4Z" fill="#D9D9D9"/>
</svg>
