<svg width="13" height="18" viewBox="0 0 13 18" fill="none" xmlns="http://www.w3.org/2000/svg">
<path d="M12 4.00929H10C9.2 4.00929 9 3.34262 9 3.00929V1.00929C9 0.209292 9.66667 0.0092925 10 0.0092926L13 3.00929C13 3.80929 12.3333 4.00929 12 4.00929Z" fill="#D9D9D9"/>
<path fill-rule="evenodd" clip-rule="evenodd" d="M1 0.0092911C3 -0.0116146 6.2 0.0092923 7 0.0092923C7.8 0.0092923 8 0.675951 8 1.00928V4.07201C8 4.872 8.66667 5.03019 9 5.00929H12C12.3333 5.00929 13 5.22183 13 6.072V17.0093C13 17.3426 12.8 18.0093 12 18.0093H1C0.666667 18.0093 0 17.8093 0 17.0093V1.00929C0 0.675958 0.2 0.0092911 1 0.0092911ZM3 11C3 11.3333 3.2 12 4 12C4.33333 12 5 11.8 5 11C5 10.6667 4.8 10 4 10C3.66667 10 3 10.2 3 11ZM5 8C5 8.33333 4.8 9 4 9C3.2 9 3 8.30933 3 8V6C3 5.2 3.66667 5 4 5C4.8 5 5 4.34263 5 4.00929V3C5 2 3 2 3 3C3 3.33333 2.8 4 2 4C1.66667 4 1 3.8 1 3C1 1.4 2.33333 1.00928 3 1.00928L5 1.00929C5.66667 1.00619 7 1.4 7 3V4C7 5.6 5.66667 6 5 6V8Z" fill="#D9D9D9"/>
</svg>
